<?xml version="1.0" encoding="UTF-8" standalone="no"?>
<!-- Created with Inkscape (http://www.inkscape.org/) -->

<svg
   width="206.05261mm"
   height="197.27075mm"
   viewBox="0 0 206.05261 197.27075"
   version="1.1"
   id="svg5"
   inkscape:version="1.1.2 (b8e25be833, 2022-02-05)"
   sodipodi:docname="International Union for Conservation of Nature.svg"
   xmlns:inkscape="http://www.inkscape.org/namespaces/inkscape"
   xmlns:sodipodi="http://sodipodi.sourceforge.net/DTD/sodipodi-0.dtd"
   xmlns:xlink="http://www.w3.org/1999/xlink"
   xmlns="http://www.w3.org/2000/svg"
   xmlns:svg="http://www.w3.org/2000/svg">
  <sodipodi:namedview
     id="namedview7"
     pagecolor="#ffffff"
     bordercolor="#666666"
     borderopacity="1.0"
     inkscape:pageshadow="2"
     inkscape:pageopacity="0.0"
     inkscape:pagecheckerboard="0"
     inkscape:document-units="mm"
     showgrid="false"
     inkscape:zoom="0.64052329"
     inkscape:cx="395.77015"
     inkscape:cy="555.79556"
     inkscape:window-width="1920"
     inkscape:window-height="1017"
     inkscape:window-x="-8"
     inkscape:window-y="-8"
     inkscape:window-maximized="1"
     inkscape:current-layer="layer1" />
  <defs
     id="defs2">
    <linearGradient
       id="linearGradient3255">
      <stop
         id="stop3257"
         style="stop-color:#f0f4f7;stop-opacity:1"
         offset="0" />
      <stop
         id="stop3263"
         style="stop-color:#0ebfe4;stop-opacity:1"
         offset="0.5" />
      <stop
         id="stop3259"
         style="stop-color:#1e3a6b;stop-opacity:1"
         offset="1" />
    </linearGradient>
    <radialGradient
       cx="171.56894"
       cy="23.96701"
       r="65.006706"
       fx="171.56894"
       fy="23.96701"
       id="radialGradient3261"
       xlink:href="#linearGradient3255"
       gradientUnits="userSpaceOnUse"
       gradientTransform="matrix(1.4273281,8.9736708e-8,-1.1204688e-7,1.7821879,-214.37475,-22.188845)" />
  </defs>
  <g
     inkscape:label="Layer 1"
     inkscape:groupmode="layer"
     id="layer1"
     transform="translate(-0.30760263,-1.1219279)">
    <g
       id="layer2"
       transform="matrix(1.4266625,0,0,1.4266625,-4.1569522,-3.0232628)">
      <path
         d="M 42.37723,88.90547 V 56.330602 h 6.482585 V 88.90547 H 42.37723"
         id="path3237"
         style="font-style:normal;font-variant:normal;font-weight:bold;font-stretch:normal;font-size:45.1786px;font-family:Arial;-inkscape-font-specification:'Arial Bold';opacity:1;fill:#000000;fill-opacity:1;stroke:none;stroke-width:1px;stroke-linecap:butt;stroke-linejoin:miter;stroke-opacity:1" />
      <path
         d="m 54.970088,56.330602 h 6.844311 v 17.642869 c -1.1e-5,2.799762 0.08477,4.614413 0.254348,5.443958 0.292877,1.333222 0.986557,2.407199 2.081041,3.221934 1.109875,0.799934 2.620554,1.199898 4.532043,1.199893 1.942285,5e-6 3.406719,-0.377739 4.393307,-1.133232 0.986544,-0.770295 1.580025,-1.710951 1.780445,-2.82197 0.200373,-1.111002 0.300571,-2.955279 0.300595,-5.532839 V 56.330602 h 6.844309 v 17.109583 c -3e-5,3.910773 -0.18501,6.673486 -0.554944,8.288148 -0.369992,1.614677 -1.055963,2.977517 -2.057918,4.088524 -0.986594,1.111013 -2.312292,1.999823 -3.977098,2.666428 -1.664854,0.651794 -3.838382,0.97769 -6.520592,0.97769 -3.237188,0 -5.695896,-0.355523 -7.376131,-1.06657 -1.664841,-0.725861 -2.982831,-1.65911 -3.953976,-2.799751 -0.971158,-1.155447 -1.610884,-2.362745 -1.919182,-3.621898 -0.447042,-1.866491 -0.670561,-4.621798 -0.670558,-8.265929 V 56.330602"
         id="path3235"
         style="font-style:normal;font-variant:normal;font-weight:bold;font-stretch:normal;font-size:45.1786px;font-family:Arial;-inkscape-font-specification:'Arial Bold';opacity:1;fill:#000000;fill-opacity:1;stroke:none;stroke-width:1px;stroke-linecap:butt;stroke-linejoin:miter;stroke-opacity:1" />
      <path
         d="m 86.112774,72.818018 c -2e-6,-3.318202 0.489111,-6.103136 1.467342,-8.354808 0.730016,-1.659085 1.722843,-3.147839 2.978484,-4.466268 1.270228,-1.318371 2.657266,-2.29606 4.161118,-2.933071 2.000245,-0.85915 4.307108,-1.288741 6.920602,-1.288774 4.7305,3.3e-5 8.51201,1.488788 11.34452,4.466267 1.84281,1.927266 3.08922,4.341708 3.73925,7.243327 l -6.7962,0.07182 c -0.40508,-1.364805 -1.00674,-2.499599 -1.805,-3.404383 -1.60606,-1.836846 -3.74502,-2.755281 -6.41687,-2.755309 -2.671894,2.8e-5 -4.825453,0.933276 -6.460687,2.79975 -1.635256,1.851709 -2.452879,4.651455 -2.45287,8.399249 m 0,0 c -9e-6,3.688572 0.839515,6.488319 2.518572,8.399249 1.679035,1.896133 3.810694,2.844196 6.394985,2.844191 2.58425,5e-6 4.70099,-0.940931 6.35117,-2.821971 0.91855,-1.04705 1.5841,-2.380226 1.99571,-4.000369 l 6.80705,0.151229 c -0.59831,3.165811 -1.87541,5.78207 -3.83131,7.848783 -2.8179,2.9627 -6.58481,4.444047 -11.30072,4.444047 -4.774351,0 -8.570455,-1.473941 -11.388326,-4.421827 -2.817884,-2.96269 -4.226822,-7.036396 -4.22682,-12.22113"
         id="path3233"
         style="font-style:normal;font-variant:normal;font-weight:bold;font-stretch:normal;font-size:45.1786px;font-family:Arial;-inkscape-font-specification:'Arial Bold';opacity:1;fill:#000000;fill-opacity:1;stroke:none;stroke-width:1px;stroke-linecap:butt;stroke-linejoin:miter;stroke-opacity:1" />
      <path
         d="M 120.83876,88.90547 V 56.330602 h 5.8125 l 14.86238,22.557184 V 56.330602 h 6.04555 V 88.90547 h -5.6649 l -15.28715,-22.84969 0.63431,22.84969 h -6.40269"
         id="text2454"
         style="font-style:normal;font-variant:normal;font-weight:bold;font-stretch:normal;font-size:45.1786px;font-family:Arial;-inkscape-font-specification:'Arial Bold';opacity:1;fill:#000000;fill-opacity:1;stroke:none;stroke-width:1px;stroke-linecap:butt;stroke-linejoin:miter;stroke-opacity:1" />
      <path
         d="m 110.94969,106.84342 21.09476,-0.0591 c -11.98418,20.56478 -34.27571,34.39549 -59.77793,34.39549 -38.16371,0 -69.13715,-30.97344 -69.13715,-69.137143 0,-38.163706 30.97344,-69.137151 69.13715,-69.137151 25.93292,0 48.54578,14.30182 60.37627,35.44316 L 111.8776,38.300824 C 102.3299,27.105044 88.12269,20.001872 72.26652,20.001872 c -28.72652,0 -52.0408,23.314277 -52.0408,52.040794 0,28.726514 23.31428,52.040794 52.0408,52.040794 15.35032,0 29.15522,-6.65719 38.68317,-17.24004 z"
         id="path3244"
         style="fill:url(#radialGradient3261);fill-opacity:1;fill-rule:evenodd;stroke:none;stroke-width:0.5;stroke-linecap:butt;stroke-linejoin:miter;stroke-miterlimit:4;stroke-dashoffset:0;stroke-opacity:1" />
    </g>
  </g>
</svg>
